<svg xmlns="http://www.w3.org/2000/svg" width="10.002" height="10" viewBox="0 0 10.002 10">
  <path id="instagram-brands" d="M4.927,34.261a2.564,2.564,0,1,0,2.564,2.564A2.56,2.56,0,0,0,4.927,34.261Zm0,4.231a1.667,1.667,0,1,1,1.667-1.667A1.67,1.67,0,0,1,4.927,38.492Zm3.267-4.336a.6.6,0,1,1-.6-.6A.6.6,0,0,1,8.194,34.156Zm1.7.607a2.959,2.959,0,0,0-.808-2.1,2.979,2.979,0,0,0-2.1-.808c-.826-.047-3.3-.047-4.126,0a2.975,2.975,0,0,0-2.1.806,2.969,2.969,0,0,0-.808,2.1c-.047.826-.047,3.3,0,4.126a2.959,2.959,0,0,0,.808,2.1,2.983,2.983,0,0,0,2.1.808c.826.047,3.3.047,4.126,0a2.959,2.959,0,0,0,2.1-.808,2.979,2.979,0,0,0,.808-2.1C9.939,38.061,9.939,35.589,9.892,34.763ZM8.825,39.773a1.688,1.688,0,0,1-.951.951,11.021,11.021,0,0,1-2.948.2,11.107,11.107,0,0,1-2.948-.2,1.688,1.688,0,0,1-.951-.951,11.021,11.021,0,0,1-.2-2.948,11.107,11.107,0,0,1,.2-2.948,1.688,1.688,0,0,1,.951-.951,11.021,11.021,0,0,1,2.948-.2,11.107,11.107,0,0,1,2.948.2,1.688,1.688,0,0,1,.951.951,11.021,11.021,0,0,1,.2,2.948A11.014,11.014,0,0,1,8.825,39.773Z" transform="translate(0.075 -31.825)"/>
</svg>
