<svg xmlns="http://www.w3.org/2000/svg" width="86.256" height="12.024" viewBox="0 0 86.256 12.024">
  <path id="Path_393" data-name="Path 393" d="M12.744-.216q.036,0,.036.108T12.744,0H9.54q-.4,0-1.476-1.431a45.55,45.55,0,0,1-2.61-4,3.58,3.58,0,0,1-.414.018q-.7,0-.99-.018v3.978a2.623,2.623,0,0,0,.09.81.54.54,0,0,0,.351.342,2.8,2.8,0,0,0,.837.09q.036,0,.036.108T5.328,0q-.594,0-.936-.018L3.024-.036,1.71-.018Q1.35,0,.738,0,.684,0,.684-.108T.738-.216a2.8,2.8,0,0,0,.837-.09.566.566,0,0,0,.36-.351,2.41,2.41,0,0,0,.1-.8V-9.792a2.543,2.543,0,0,0-.09-.792.567.567,0,0,0-.36-.351,2.571,2.571,0,0,0-.828-.1q-.036,0-.036-.108t.036-.108l.954.018q.828.036,1.314.036.612,0,1.278-.054.234-.018.585-.036T5.67-11.3a4.535,4.535,0,0,1,2.538.6,1.915,1.915,0,0,1,.9,1.683,3.132,3.132,0,0,1-.54,1.791A3.987,3.987,0,0,1,7.128-5.94Q8.568-3.78,9.54-2.556A9.864,9.864,0,0,0,11.268-.774,2.5,2.5,0,0,0,12.744-.216ZM4.05-5.94a6.467,6.467,0,0,0,1.044.072,1.8,1.8,0,0,0,1.5-.585,3.062,3.062,0,0,0,.459-1.881,3.474,3.474,0,0,0-.432-2.034,1.477,1.477,0,0,0-1.242-.558,1.546,1.546,0,0,0-1.026.27,1.148,1.148,0,0,0-.306.9ZM21.888-8.946a2.4,2.4,0,0,0-.441-1.53,1.483,1.483,0,0,0-1.233-.558q-.036,0-.036-.108t.036-.108l.864.018q.684.036,1.1.036.342,0,.99-.036l.828-.018q.036,0,.036.108t-.036.108a1.272,1.272,0,0,0-1.1.558,2.6,2.6,0,0,0-.4,1.53v5a4.3,4.3,0,0,1-.558,2.214A3.724,3.724,0,0,1,20.367-.261a5.148,5.148,0,0,1-2.349.513,5.282,5.282,0,0,1-2.358-.5,3.81,3.81,0,0,1-1.611-1.467,4.265,4.265,0,0,1-.585-2.259V-9.792a2.326,2.326,0,0,0-.1-.792.6.6,0,0,0-.36-.351,2.484,2.484,0,0,0-.819-.1q-.054,0-.054-.108t.054-.108l.954.018q.828.036,1.314.036.54,0,1.368-.036l.918-.018q.054,0,.054.108t-.054.108a2.291,2.291,0,0,0-.819.108.624.624,0,0,0-.36.369,2.41,2.41,0,0,0-.1.8v5.148a4.923,4.923,0,0,0,.846,3.168A2.928,2.928,0,0,0,18.7-.414a3.04,3.04,0,0,0,2.34-.909,3.679,3.679,0,0,0,.846-2.6Zm6.372-1.89q-2.142,0-3.078,2.79-.018.054-.108.045t-.09-.063q.072-.72.162-1.863t.09-1.719q0-.09.1-.09t.1.09q0,.4,1.026.4,1.548.054,3.618.054,1.062,0,2.25-.036l1.224-.018a3.983,3.983,0,0,0,1-.09.552.552,0,0,0,.405-.36q.018-.072.117-.072t.1.072q-.054.54-.117,1.728t-.063,1.908q0,.054-.09.054t-.108-.054a3.751,3.751,0,0,0-1.008-2.079,2.555,2.555,0,0,0-1.818-.693.839.839,0,0,0-.693.225,1.505,1.505,0,0,0-.171.855v8.3a2.212,2.212,0,0,0,.108.81.6.6,0,0,0,.414.342,3.771,3.771,0,0,0,.972.09q.054,0,.054.108T32.6,0q-.648,0-1.026-.018L30.078-.036,28.62-.018Q28.242,0,27.576,0q-.054,0-.054-.108t.054-.108a3.786,3.786,0,0,0,.963-.09.633.633,0,0,0,.432-.351,2.066,2.066,0,0,0,.117-.8V-9.792a1.478,1.478,0,0,0-.162-.828A.8.8,0,0,0,28.26-10.836ZM49.014-.216q.054,0,.054.108T49.014,0q-.63,0-1.008-.018L46.62-.036,45-.018Q44.676,0,44.118,0q-.054,0-.054-.108t.054-.108a3.771,3.771,0,0,0,.972-.09A.6.6,0,0,0,45.5-.648a2.213,2.213,0,0,0,.108-.81V-5.6H39.8v4.14a2.223,2.223,0,0,0,.108.8.6.6,0,0,0,.414.351,3.771,3.771,0,0,0,.972.09q.036,0,.036.108T41.292,0q-.63,0-1.008-.018L38.718-.036l-1.35.018q-.36.018-.99.018-.036,0-.036-.108t.036-.108a3.365,3.365,0,0,0,.918-.09.6.6,0,0,0,.4-.351,2.223,2.223,0,0,0,.108-.8V-9.792a2.146,2.146,0,0,0-.108-.792.626.626,0,0,0-.387-.351,2.9,2.9,0,0,0-.891-.1q-.054,0-.054-.108t.054-.108l.972.018q.828.036,1.332.036.684,0,1.584-.036l.99-.018q.036,0,.036.108t-.036.108a3.089,3.089,0,0,0-.954.108.687.687,0,0,0-.423.369,2.066,2.066,0,0,0-.117.8V-6.1h5.814V-9.756a2.223,2.223,0,0,0-.108-.8.655.655,0,0,0-.414-.369,3.169,3.169,0,0,0-.972-.108q-.054,0-.054-.108t.054-.108l.882.018q.9.036,1.62.036.486,0,1.386-.036l1.008-.018q.054,0,.054.108t-.054.108a3.086,3.086,0,0,0-.909.1.6.6,0,0,0-.4.351,2.326,2.326,0,0,0-.1.792v8.334a2.41,2.41,0,0,0,.1.8.57.57,0,0,0,.387.351A3.365,3.365,0,0,0,49.014-.216Zm4.41-1.314a2.254,2.254,0,0,0,.072.675.432.432,0,0,0,.279.279A2.254,2.254,0,0,0,54.45-.5h.612a4.017,4.017,0,0,0,2.43-.747A3.563,3.563,0,0,0,58.86-3.276q0-.036.072-.036a.161.161,0,0,1,.081.027q.045.027.045.045Q58.9-1.458,58.9-.27a.285.285,0,0,1-.063.207A.285.285,0,0,1,58.626,0h-8.5q-.036,0-.036-.108t.036-.108a2.8,2.8,0,0,0,.837-.09.566.566,0,0,0,.36-.351,2.41,2.41,0,0,0,.1-.8V-9.792a2.326,2.326,0,0,0-.1-.792.6.6,0,0,0-.369-.351,2.571,2.571,0,0,0-.828-.1q-.036,0-.036-.108t.036-.108l.918.018q.828.036,1.368.036t1.368-.036l.918-.018q.054,0,.054.108t-.054.108a2.571,2.571,0,0,0-.828.1.566.566,0,0,0-.36.36,2.636,2.636,0,0,0-.09.8Zm14.9-1.332q0-.036.072-.036a.189.189,0,0,1,.1.027q.045.027.045.045a20.248,20.248,0,0,0-.18,2.556.317.317,0,0,1-.054.207A.281.281,0,0,1,68.094,0H60.138q-.054,0-.054-.108t.054-.108a2.8,2.8,0,0,0,.837-.09.54.54,0,0,0,.351-.351,2.636,2.636,0,0,0,.09-.8V-9.792a2.543,2.543,0,0,0-.09-.792.567.567,0,0,0-.36-.351,2.571,2.571,0,0,0-.828-.1q-.054,0-.054-.108t.054-.108H67.77q.18,0,.18.162l.036,2.394q0,.036-.1.054t-.117-.036a2.75,2.75,0,0,0-.972-1.548,2.963,2.963,0,0,0-1.8-.5h-.54a1.136,1.136,0,0,0-.792.234.938.938,0,0,0-.252.72V-6.1h1.494a2.961,2.961,0,0,0,1.6-.36,1.136,1.136,0,0,0,.558-1.008q0-.054.1-.054t.1.054l-.018,1.62.018.864q.036.612.036.972,0,.036-.108.036t-.108-.036a1.369,1.369,0,0,0-.567-1.161A2.689,2.689,0,0,0,64.89-5.6H63.414V-1.53a1.245,1.245,0,0,0,.2.774.752.752,0,0,0,.63.252h.594a3.933,3.933,0,0,0,2.25-.576A3.314,3.314,0,0,0,68.328-2.862Zm4.14-6.57A2.042,2.042,0,0,0,72.8-8.28a3.686,3.686,0,0,0,.819.882q.486.378,1.314.918a17.271,17.271,0,0,1,1.44,1.008,3.992,3.992,0,0,1,.918,1.053,2.7,2.7,0,0,1,.378,1.431,2.857,2.857,0,0,1-.5,1.665,3.321,3.321,0,0,1-1.4,1.134,4.752,4.752,0,0,1-1.989.405A6.842,6.842,0,0,1,72.09-.009,3.058,3.058,0,0,1,70.9-.5a.712.712,0,0,1-.135-.135.365.365,0,0,1-.045-.207l-.054-2.862v-.018q0-.072.09-.081t.108.063q.54,1.1.945,1.782A4.685,4.685,0,0,0,72.837-.756a2.135,2.135,0,0,0,1.413.522,1.8,1.8,0,0,0,1.188-.387,1.632,1.632,0,0,0,.468-1.323,2.674,2.674,0,0,0-.351-1.386A3.776,3.776,0,0,0,74.7-4.338a16.286,16.286,0,0,0-1.386-.99,14.452,14.452,0,0,1-1.341-.954,3.826,3.826,0,0,1-.819-.954,2.464,2.464,0,0,1-.342-1.314,2.428,2.428,0,0,1,.549-1.611,3.251,3.251,0,0,1,1.413-.972,5.266,5.266,0,0,1,1.818-.315,7.182,7.182,0,0,1,1.278.117,5.332,5.332,0,0,1,1.044.279.5.5,0,0,1,.216.153.366.366,0,0,1,.054.207v2.646q0,.054-.09.081t-.108-.027l-.144-.342a8.092,8.092,0,0,0-1.053-1.926,2,2,0,0,0-1.683-.792,1.693,1.693,0,0,0-1.179.414A1.541,1.541,0,0,0,72.468-9.432Zm9.27,0a2.042,2.042,0,0,0,.333,1.152,3.686,3.686,0,0,0,.819.882q.486.378,1.314.918a17.271,17.271,0,0,1,1.44,1.008,3.992,3.992,0,0,1,.918,1.053,2.7,2.7,0,0,1,.378,1.431,2.857,2.857,0,0,1-.5,1.665,3.321,3.321,0,0,1-1.4,1.134,4.752,4.752,0,0,1-1.989.405A6.842,6.842,0,0,1,81.36-.009a3.058,3.058,0,0,1-1.188-.5.712.712,0,0,1-.135-.135.365.365,0,0,1-.045-.207l-.054-2.862v-.018q0-.072.09-.081t.108.063q.54,1.1.945,1.782A4.685,4.685,0,0,0,82.107-.756a2.135,2.135,0,0,0,1.413.522,1.8,1.8,0,0,0,1.188-.387,1.632,1.632,0,0,0,.468-1.323,2.674,2.674,0,0,0-.351-1.386,3.776,3.776,0,0,0-.855-1.008,16.286,16.286,0,0,0-1.386-.99,14.452,14.452,0,0,1-1.341-.954,3.826,3.826,0,0,1-.819-.954,2.464,2.464,0,0,1-.342-1.314,2.428,2.428,0,0,1,.549-1.611,3.251,3.251,0,0,1,1.413-.972,5.266,5.266,0,0,1,1.818-.315,7.182,7.182,0,0,1,1.278.117,5.332,5.332,0,0,1,1.044.279.5.5,0,0,1,.216.153.366.366,0,0,1,.054.207v2.646q0,.054-.09.081t-.108-.027l-.144-.342a8.092,8.092,0,0,0-1.053-1.926,2,2,0,0,0-1.683-.792,1.693,1.693,0,0,0-1.179.414A1.541,1.541,0,0,0,81.738-9.432Z" transform="translate(-0.684 11.772)"/>
</svg>
